<mxfile host="app.diagrams.net" modified="2021-05-26T03:05:44.247Z" agent="5.0 (Windows NT 10.0; Win64; x64) AppleWebKit/537.36 (KHTML, like Gecko) Chrome/90.0.4430.212 Safari/537.36 Edg/90.0.818.66" etag="6cwi87jA-lpqqTyQ0Lca" version="14.1.4" type="github">
  <diagram id="wdTt2lY_ousBgX9TNOF9" name="Page-1">
    <mxGraphModel dx="752" dy="445" grid="1" gridSize="10" guides="1" tooltips="1" connect="1" arrows="1" fold="1" page="1" pageScale="1" pageWidth="827" pageHeight="1169" math="0" shadow="0">
      <root>
        <mxCell id="0" />
        <mxCell id="1" parent="0" />
        <mxCell id="rqlkk8g561G5dhS6AtiI-56" style="edgeStyle=orthogonalEdgeStyle;rounded=0;orthogonalLoop=1;jettySize=auto;html=1;exitX=1;exitY=0.75;exitDx=0;exitDy=0;entryX=-0.013;entryY=0.415;entryDx=0;entryDy=0;entryPerimeter=0;fontFamily=Times New Roman;" edge="1" parent="1" source="rqlkk8g561G5dhS6AtiI-39" target="rqlkk8g561G5dhS6AtiI-44">
          <mxGeometry relative="1" as="geometry" />
        </mxCell>
        <mxCell id="rqlkk8g561G5dhS6AtiI-57" style="edgeStyle=orthogonalEdgeStyle;rounded=0;orthogonalLoop=1;jettySize=auto;html=1;exitX=1;exitY=0.25;exitDx=0;exitDy=0;entryX=-0.01;entryY=0.578;entryDx=0;entryDy=0;entryPerimeter=0;fontFamily=Times New Roman;" edge="1" parent="1" source="rqlkk8g561G5dhS6AtiI-39" target="rqlkk8g561G5dhS6AtiI-43">
          <mxGeometry relative="1" as="geometry" />
        </mxCell>
        <mxCell id="rqlkk8g561G5dhS6AtiI-39" value="" style="rounded=0;whiteSpace=wrap;html=1;strokeColor=#000000;fontFamily=Times New Roman;" vertex="1" parent="1">
          <mxGeometry x="501" y="580" width="50" height="70" as="geometry" />
        </mxCell>
        <mxCell id="rqlkk8g561G5dhS6AtiI-1" value="" style="rounded=0;whiteSpace=wrap;html=1;dashed=1;strokeColor=#007FFF;" vertex="1" parent="1">
          <mxGeometry x="330" y="243.75" width="150" height="140" as="geometry" />
        </mxCell>
        <mxCell id="rqlkk8g561G5dhS6AtiI-31" value="task" style="rounded=0;whiteSpace=wrap;html=1;fontFamily=Times New Roman;strokeColor=none;" vertex="1" parent="1">
          <mxGeometry x="400" y="305.75" width="30" height="16" as="geometry" />
        </mxCell>
        <mxCell id="rqlkk8g561G5dhS6AtiI-10" style="edgeStyle=orthogonalEdgeStyle;rounded=0;orthogonalLoop=1;jettySize=auto;html=1;exitX=0.5;exitY=1;exitDx=0;exitDy=0;entryX=0.472;entryY=0.007;entryDx=0;entryDy=0;entryPerimeter=0;fontFamily=Times New Roman;" edge="1" parent="1" source="rqlkk8g561G5dhS6AtiI-3" target="rqlkk8g561G5dhS6AtiI-6">
          <mxGeometry relative="1" as="geometry" />
        </mxCell>
        <mxCell id="rqlkk8g561G5dhS6AtiI-3" value="主线程&lt;br&gt;epoll 监听socket" style="rounded=0;whiteSpace=wrap;html=1;fontFamily=Times New Roman;" vertex="1" parent="1">
          <mxGeometry x="350" y="260" width="108" height="40" as="geometry" />
        </mxCell>
        <mxCell id="rqlkk8g561G5dhS6AtiI-19" style="edgeStyle=orthogonalEdgeStyle;rounded=0;orthogonalLoop=1;jettySize=auto;html=1;exitX=0.25;exitY=1;exitDx=0;exitDy=0;entryX=0.25;entryY=0;entryDx=0;entryDy=0;fontFamily=Times New Roman;" edge="1" parent="1" source="rqlkk8g561G5dhS6AtiI-6" target="rqlkk8g561G5dhS6AtiI-11">
          <mxGeometry relative="1" as="geometry" />
        </mxCell>
        <mxCell id="rqlkk8g561G5dhS6AtiI-20" style="edgeStyle=orthogonalEdgeStyle;rounded=0;orthogonalLoop=1;jettySize=auto;html=1;exitX=0.75;exitY=1;exitDx=0;exitDy=0;entryX=0.75;entryY=0;entryDx=0;entryDy=0;fontFamily=Times New Roman;" edge="1" parent="1" source="rqlkk8g561G5dhS6AtiI-6" target="rqlkk8g561G5dhS6AtiI-11">
          <mxGeometry relative="1" as="geometry" />
        </mxCell>
        <mxCell id="rqlkk8g561G5dhS6AtiI-6" value="&lt;font style=&quot;font-size: 11px&quot;&gt;任务队列，条件变量唤醒任务&lt;/font&gt;" style="rounded=0;whiteSpace=wrap;html=1;fontFamily=Times New Roman;" vertex="1" parent="1">
          <mxGeometry x="350" y="330" width="110" height="40" as="geometry" />
        </mxCell>
        <mxCell id="rqlkk8g561G5dhS6AtiI-50" style="edgeStyle=orthogonalEdgeStyle;rounded=0;orthogonalLoop=1;jettySize=auto;html=1;exitX=0.75;exitY=1;exitDx=0;exitDy=0;entryX=0.695;entryY=-0.003;entryDx=0;entryDy=0;entryPerimeter=0;fontFamily=Times New Roman;" edge="1" parent="1" source="rqlkk8g561G5dhS6AtiI-11" target="rqlkk8g561G5dhS6AtiI-23">
          <mxGeometry relative="1" as="geometry" />
        </mxCell>
        <mxCell id="rqlkk8g561G5dhS6AtiI-51" style="edgeStyle=orthogonalEdgeStyle;rounded=0;orthogonalLoop=1;jettySize=auto;html=1;exitX=0.25;exitY=1;exitDx=0;exitDy=0;entryX=0.319;entryY=0.009;entryDx=0;entryDy=0;entryPerimeter=0;fontFamily=Times New Roman;" edge="1" parent="1" source="rqlkk8g561G5dhS6AtiI-11" target="rqlkk8g561G5dhS6AtiI-23">
          <mxGeometry relative="1" as="geometry" />
        </mxCell>
        <mxCell id="rqlkk8g561G5dhS6AtiI-11" value="工作线程池" style="rounded=0;whiteSpace=wrap;html=1;fontFamily=Times New Roman;" vertex="1" parent="1">
          <mxGeometry x="350.5" y="400" width="109.5" height="30" as="geometry" />
        </mxCell>
        <mxCell id="rqlkk8g561G5dhS6AtiI-22" style="edgeStyle=orthogonalEdgeStyle;rounded=0;orthogonalLoop=1;jettySize=auto;html=1;fontFamily=Times New Roman;" edge="1" parent="1" source="rqlkk8g561G5dhS6AtiI-21" target="rqlkk8g561G5dhS6AtiI-11">
          <mxGeometry relative="1" as="geometry" />
        </mxCell>
        <mxCell id="rqlkk8g561G5dhS6AtiI-21" value="管理线程&lt;br&gt;(增/删线程数)" style="rounded=0;whiteSpace=wrap;html=1;strokeColor=#000000;fontFamily=Times New Roman;" vertex="1" parent="1">
          <mxGeometry x="500" y="397.5" width="80" height="35" as="geometry" />
        </mxCell>
        <mxCell id="rqlkk8g561G5dhS6AtiI-23" value="" style="rounded=0;whiteSpace=wrap;html=1;fontFamily=Times New Roman;strokeColor=#007FFF;dashed=1;" vertex="1" parent="1">
          <mxGeometry x="330" y="460" width="150" height="190" as="geometry" />
        </mxCell>
        <mxCell id="rqlkk8g561G5dhS6AtiI-29" style="edgeStyle=orthogonalEdgeStyle;rounded=0;orthogonalLoop=1;jettySize=auto;html=1;exitX=1;exitY=0.5;exitDx=0;exitDy=0;fontFamily=Times New Roman;" edge="1" parent="1" source="rqlkk8g561G5dhS6AtiI-24" target="rqlkk8g561G5dhS6AtiI-27">
          <mxGeometry relative="1" as="geometry" />
        </mxCell>
        <mxCell id="rqlkk8g561G5dhS6AtiI-24" value="日志输出" style="rounded=0;whiteSpace=wrap;html=1;fontFamily=Times New Roman;" vertex="1" parent="1">
          <mxGeometry x="352" y="480" width="109" height="30" as="geometry" />
        </mxCell>
        <mxCell id="rqlkk8g561G5dhS6AtiI-52" style="edgeStyle=orthogonalEdgeStyle;rounded=0;orthogonalLoop=1;jettySize=auto;html=1;fontFamily=Times New Roman;" edge="1" parent="1" source="rqlkk8g561G5dhS6AtiI-25">
          <mxGeometry relative="1" as="geometry">
            <mxPoint x="500" y="550" as="targetPoint" />
          </mxGeometry>
        </mxCell>
        <mxCell id="rqlkk8g561G5dhS6AtiI-25" value="定时器处理&lt;br&gt;过期连接" style="rounded=0;whiteSpace=wrap;html=1;strokeColor=#000000;fontFamily=Times New Roman;" vertex="1" parent="1">
          <mxGeometry x="352" y="530" width="109" height="40" as="geometry" />
        </mxCell>
        <mxCell id="rqlkk8g561G5dhS6AtiI-53" style="edgeStyle=orthogonalEdgeStyle;rounded=0;orthogonalLoop=1;jettySize=auto;html=1;fontFamily=Times New Roman;" edge="1" parent="1" source="rqlkk8g561G5dhS6AtiI-26">
          <mxGeometry relative="1" as="geometry">
            <mxPoint x="500" y="605" as="targetPoint" />
          </mxGeometry>
        </mxCell>
        <mxCell id="rqlkk8g561G5dhS6AtiI-26" value="处理http请求" style="rounded=0;whiteSpace=wrap;html=1;strokeColor=#000000;fontFamily=Times New Roman;" vertex="1" parent="1">
          <mxGeometry x="352" y="590" width="109" height="30" as="geometry" />
        </mxCell>
        <mxCell id="rqlkk8g561G5dhS6AtiI-46" style="edgeStyle=orthogonalEdgeStyle;rounded=0;orthogonalLoop=1;jettySize=auto;html=1;fontFamily=Times New Roman;" edge="1" parent="1" source="rqlkk8g561G5dhS6AtiI-27" target="rqlkk8g561G5dhS6AtiI-28">
          <mxGeometry relative="1" as="geometry" />
        </mxCell>
        <mxCell id="rqlkk8g561G5dhS6AtiI-27" value="日志任务队列" style="rounded=0;whiteSpace=wrap;html=1;strokeColor=#000000;fontFamily=Times New Roman;" vertex="1" parent="1">
          <mxGeometry x="501" y="480" width="90" height="30" as="geometry" />
        </mxCell>
        <mxCell id="rqlkk8g561G5dhS6AtiI-28" value="写日志线程&lt;br&gt;（写Log文件）" style="rounded=0;whiteSpace=wrap;html=1;strokeColor=#000000;fontFamily=Times New Roman;" vertex="1" parent="1">
          <mxGeometry x="621" y="475" width="90" height="40" as="geometry" />
        </mxCell>
        <mxCell id="rqlkk8g561G5dhS6AtiI-32" value="task" style="rounded=0;whiteSpace=wrap;html=1;fontFamily=Times New Roman;strokeColor=none;" vertex="1" parent="1">
          <mxGeometry x="461" y="475" width="30" height="20" as="geometry" />
        </mxCell>
        <mxCell id="rqlkk8g561G5dhS6AtiI-33" value="使用升序链表存储各个连接" style="rounded=0;whiteSpace=wrap;html=1;fontFamily=Times New Roman;" vertex="1" parent="1">
          <mxGeometry x="501" y="535" width="160" height="30" as="geometry" />
        </mxCell>
        <mxCell id="rqlkk8g561G5dhS6AtiI-41" value="post" style="rounded=0;whiteSpace=wrap;html=1;fontFamily=Times New Roman;strokeColor=none;" vertex="1" parent="1">
          <mxGeometry x="511" y="630" width="30" height="10" as="geometry" />
        </mxCell>
        <mxCell id="rqlkk8g561G5dhS6AtiI-40" value="get" style="rounded=0;whiteSpace=wrap;html=1;fontFamily=Times New Roman;strokeColor=none;" vertex="1" parent="1">
          <mxGeometry x="511" y="580" width="30" height="15" as="geometry" />
        </mxCell>
        <mxCell id="rqlkk8g561G5dhS6AtiI-43" value="响应" style="rounded=0;whiteSpace=wrap;html=1;strokeColor=#000000;fontFamily=Times New Roman;" vertex="1" parent="1">
          <mxGeometry x="581" y="580" width="40" height="30" as="geometry" />
        </mxCell>
        <mxCell id="rqlkk8g561G5dhS6AtiI-58" style="edgeStyle=orthogonalEdgeStyle;rounded=0;orthogonalLoop=1;jettySize=auto;html=1;exitX=1;exitY=0.5;exitDx=0;exitDy=0;fontFamily=Times New Roman;" edge="1" parent="1" source="rqlkk8g561G5dhS6AtiI-44" target="rqlkk8g561G5dhS6AtiI-45">
          <mxGeometry relative="1" as="geometry" />
        </mxCell>
        <mxCell id="rqlkk8g561G5dhS6AtiI-44" value="注册/登录" style="rounded=0;whiteSpace=wrap;html=1;strokeColor=#000000;fontFamily=Times New Roman;" vertex="1" parent="1">
          <mxGeometry x="581" y="620" width="69" height="30" as="geometry" />
        </mxCell>
        <mxCell id="rqlkk8g561G5dhS6AtiI-62" style="edgeStyle=orthogonalEdgeStyle;rounded=0;orthogonalLoop=1;jettySize=auto;html=1;exitX=1;exitY=0.5;exitDx=0;exitDy=0;entryX=1;entryY=0.5;entryDx=0;entryDy=0;fontFamily=Times New Roman;" edge="1" parent="1" source="rqlkk8g561G5dhS6AtiI-45" target="rqlkk8g561G5dhS6AtiI-43">
          <mxGeometry relative="1" as="geometry" />
        </mxCell>
        <mxCell id="rqlkk8g561G5dhS6AtiI-45" value="数据库处理" style="rounded=0;whiteSpace=wrap;html=1;strokeColor=#000000;fontFamily=Times New Roman;" vertex="1" parent="1">
          <mxGeometry x="680" y="620" width="80" height="30" as="geometry" />
        </mxCell>
        <mxCell id="rqlkk8g561G5dhS6AtiI-63" value="" style="rounded=0;whiteSpace=wrap;html=1;fontFamily=Times New Roman;strokeColor=#007FFF;dashed=1;fillColor=none;" vertex="1" parent="1">
          <mxGeometry x="338" y="465" width="392" height="60" as="geometry" />
        </mxCell>
      </root>
    </mxGraphModel>
  </diagram>
</mxfile>
